<svg width="169" height="32" viewBox="0 0 169 32" fill="none" xmlns="http://www.w3.org/2000/svg">
<g clip-path="url(#clip0_401_402)">
<path fill-rule="evenodd" clip-rule="evenodd" d="M19.2 0H12.8V8.27451L6.94904 2.42355L2.42355 6.94902L8.27453 12.8H0V19.2H8.27451L2.42355 25.0509L6.94904 29.5765L12.8 23.7254V32H19.2V23.7254L25.051 29.5765L29.5765 25.051L23.7254 19.2H32V12.8H23.7254L29.5765 6.94902L25.051 2.42354L19.2 8.27451V0Z" fill="#0D1421"/>
</g>
<path d="M49.7216 25V7.54545H56.4034C57.6648 7.54545 58.7131 7.74432 59.5483 8.14204C60.3892 8.53409 61.017 9.07102 61.4318 9.75284C61.8523 10.4347 62.0625 11.2074 62.0625 12.071C62.0625 12.7812 61.9261 13.3892 61.6534 13.8949C61.3807 14.3949 61.0142 14.8011 60.554 15.1136C60.0938 15.4261 59.5795 15.6506 59.0114 15.7869V15.9574C59.6307 15.9915 60.2244 16.1818 60.7926 16.5284C61.3665 16.8693 61.8352 17.3523 62.1989 17.9773C62.5625 18.6023 62.7443 19.358 62.7443 20.2443C62.7443 21.1477 62.5256 21.9602 62.0881 22.6818C61.6506 23.3977 60.9915 23.9631 60.1108 24.3778C59.2301 24.7926 58.1222 25 56.7869 25H49.7216ZM52.8835 22.358H56.2841C57.4318 22.358 58.2585 22.1392 58.7642 21.7017C59.2756 21.2585 59.5312 20.6903 59.5312 19.9972C59.5312 19.4801 59.4034 19.0142 59.1477 18.5994C58.892 18.179 58.5284 17.8494 58.0568 17.6108C57.5852 17.3665 57.0227 17.2443 56.3693 17.2443H52.8835V22.358ZM52.8835 14.9688H56.0114C56.5568 14.9688 57.0483 14.8693 57.4858 14.6705C57.9233 14.4659 58.267 14.179 58.517 13.8097C58.7727 13.4347 58.9006 12.9915 58.9006 12.4801C58.9006 11.804 58.6619 11.2472 58.1847 10.8097C57.7131 10.3722 57.0114 10.1534 56.0795 10.1534H52.8835V14.9688ZM69.1257 25.2642C68.2962 25.2642 67.549 25.1165 66.8842 24.821C66.2251 24.5199 65.7024 24.0767 65.3161 23.4915C64.9354 22.9062 64.745 22.1847 64.745 21.3267C64.745 20.5881 64.8814 19.9773 65.1541 19.4943C65.4268 19.0114 65.799 18.625 66.2706 18.3352C66.7422 18.0455 67.2734 17.8267 67.8643 17.679C68.4609 17.5256 69.0774 17.4148 69.7138 17.3466C70.4808 17.267 71.103 17.196 71.5803 17.1335C72.0575 17.0653 72.4041 16.9631 72.62 16.8267C72.8416 16.6847 72.9524 16.4659 72.9524 16.1705V16.1193C72.9524 15.4773 72.7621 14.9801 72.3814 14.6278C72.0007 14.2756 71.4524 14.0994 70.7365 14.0994C69.9808 14.0994 69.3814 14.2642 68.9382 14.5938C68.5007 14.9233 68.2053 15.3125 68.0518 15.7614L65.1712 15.3523C65.3984 14.5568 65.7734 13.892 66.2962 13.358C66.8189 12.8182 67.4581 12.4148 68.2138 12.1477C68.9695 11.875 69.8047 11.7386 70.7195 11.7386C71.3501 11.7386 71.978 11.8125 72.603 11.9602C73.228 12.108 73.799 12.3523 74.3161 12.6932C74.8331 13.0284 75.2479 13.4858 75.5604 14.0653C75.8786 14.6449 76.0376 15.3693 76.0376 16.2386V25H73.0717V23.2017H72.9695C72.782 23.5653 72.5178 23.9062 72.1768 24.2244C71.8416 24.5369 71.4183 24.7898 70.907 24.983C70.4013 25.1705 69.8075 25.2642 69.1257 25.2642ZM69.9268 22.9972C70.5462 22.9972 71.0831 22.875 71.5376 22.6307C71.9922 22.3807 72.3416 22.0511 72.5859 21.642C72.8359 21.233 72.9609 20.7869 72.9609 20.304V18.7614C72.8643 18.8409 72.6996 18.9148 72.4666 18.983C72.2393 19.0511 71.9837 19.1108 71.6996 19.1619C71.4155 19.2131 71.1342 19.2585 70.8558 19.2983C70.5774 19.3381 70.3359 19.3722 70.1314 19.4006C69.6712 19.4631 69.2592 19.5653 68.8956 19.7074C68.532 19.8494 68.245 20.0483 68.0348 20.304C67.8246 20.554 67.7195 20.8778 67.7195 21.2756C67.7195 21.8438 67.9268 22.2727 68.3416 22.5625C68.7564 22.8523 69.2848 22.9972 69.9268 22.9972ZM79.1399 29.9091V11.9091H82.174V14.0739H82.353C82.5121 13.7557 82.7365 13.4176 83.0263 13.0597C83.3161 12.696 83.7081 12.3864 84.2024 12.1307C84.6967 11.8693 85.3274 11.7386 86.0945 11.7386C87.1058 11.7386 88.0178 11.9972 88.8303 12.5142C89.6484 13.0256 90.2962 13.7841 90.7734 14.7898C91.2564 15.7898 91.4979 17.017 91.4979 18.4716C91.4979 19.9091 91.2621 21.1307 90.7905 22.1364C90.3189 23.142 89.6768 23.9091 88.8643 24.4375C88.0518 24.9659 87.1314 25.2301 86.103 25.2301C85.353 25.2301 84.7308 25.1051 84.2365 24.8551C83.7422 24.6051 83.3445 24.304 83.0433 23.9517C82.7479 23.5937 82.5178 23.2557 82.353 22.9375H82.2251V29.9091H79.1399ZM82.1655 18.4545C82.1655 19.3011 82.2848 20.0426 82.5234 20.679C82.7678 21.3153 83.1172 21.8125 83.5717 22.1705C84.032 22.5227 84.5888 22.6989 85.2422 22.6989C85.924 22.6989 86.495 22.517 86.9553 22.1534C87.4155 21.7841 87.7621 21.2812 87.995 20.6449C88.2337 20.0028 88.353 19.2727 88.353 18.4545C88.353 17.642 88.2365 16.9205 88.0036 16.2898C87.7706 15.6591 87.424 15.1648 86.9638 14.8068C86.5036 14.4489 85.9297 14.2699 85.2422 14.2699C84.5831 14.2699 84.0234 14.4432 83.5632 14.7898C83.103 15.1364 82.7536 15.6222 82.5149 16.2472C82.282 16.8722 82.1655 17.608 82.1655 18.4545ZM97.1143 20.8239L102.356 11.9091H105.526V25H102.543V16.0767L97.3189 25H94.1399V11.9091H97.1143V20.8239ZM112.462 25.2642C111.632 25.2642 110.885 25.1165 110.22 24.821C109.561 24.5199 109.038 24.0767 108.652 23.4915C108.271 22.9062 108.081 22.1847 108.081 21.3267C108.081 20.5881 108.217 19.9773 108.49 19.4943C108.763 19.0114 109.135 18.625 109.607 18.3352C110.078 18.0455 110.609 17.8267 111.2 17.679C111.797 17.5256 112.413 17.4148 113.05 17.3466C113.817 17.267 114.439 17.196 114.916 17.1335C115.393 17.0653 115.74 16.9631 115.956 16.8267C116.178 16.6847 116.288 16.4659 116.288 16.1705V16.1193C116.288 15.4773 116.098 14.9801 115.717 14.6278C115.337 14.2756 114.788 14.0994 114.072 14.0994C113.317 14.0994 112.717 14.2642 112.274 14.5938C111.837 14.9233 111.541 15.3125 111.388 15.7614L108.507 15.3523C108.734 14.5568 109.109 13.892 109.632 13.358C110.155 12.8182 110.794 12.4148 111.55 12.1477C112.305 11.875 113.141 11.7386 114.055 11.7386C114.686 11.7386 115.314 11.8125 115.939 11.9602C116.564 12.108 117.135 12.3523 117.652 12.6932C118.169 13.0284 118.584 13.4858 118.896 14.0653C119.214 14.6449 119.374 15.3693 119.374 16.2386V25H116.408V23.2017H116.305C116.118 23.5653 115.854 23.9062 115.513 24.2244C115.178 24.5369 114.754 24.7898 114.243 24.983C113.737 25.1705 113.143 25.2642 112.462 25.2642ZM113.263 22.9972C113.882 22.9972 114.419 22.875 114.874 22.6307C115.328 22.3807 115.678 22.0511 115.922 21.642C116.172 21.233 116.297 20.7869 116.297 20.304V18.7614C116.2 18.8409 116.036 18.9148 115.803 18.983C115.575 19.0511 115.32 19.1108 115.036 19.1619C114.751 19.2131 114.47 19.2585 114.192 19.2983C113.913 19.3381 113.672 19.3722 113.467 19.4006C113.007 19.4631 112.595 19.5653 112.232 19.7074C111.868 19.8494 111.581 20.0483 111.371 20.304C111.161 20.554 111.055 20.8778 111.055 21.2756C111.055 21.8438 111.263 22.2727 111.678 22.5625C112.092 22.8523 112.621 22.9972 113.263 22.9972ZM131.467 17.1761V19.7074H124.496V17.1761H131.467ZM125.45 11.9091V25H122.476V11.9091H125.45ZM133.487 11.9091V25H130.521V11.9091H133.487ZM135.143 14.4403V11.9091H146.597V14.4403H142.362V25H139.379V14.4403H135.143ZM161.041 25.2386C159.905 25.2386 158.888 25.0256 157.99 24.5994C157.092 24.1676 156.379 23.5767 155.851 22.8267C155.328 22.0767 155.05 21.2187 155.016 20.2528H158.084C158.141 20.9687 158.45 21.554 159.013 22.0085C159.575 22.4574 160.251 22.6818 161.041 22.6818C161.661 22.6818 162.212 22.5398 162.695 22.2557C163.178 21.9716 163.558 21.5767 163.837 21.071C164.115 20.5653 164.251 19.9886 164.246 19.3409C164.251 18.6818 164.112 18.0966 163.828 17.5852C163.544 17.0739 163.155 16.6733 162.661 16.3835C162.166 16.0881 161.598 15.9403 160.956 15.9403C160.433 15.9347 159.919 16.0312 159.413 16.2301C158.908 16.429 158.507 16.6903 158.212 17.0142L155.357 16.5455L156.268 7.54545H166.393V10.1875H158.885L158.382 14.8153H158.484C158.808 14.4347 159.266 14.1193 159.857 13.8693C160.447 13.6136 161.095 13.4858 161.8 13.4858C162.857 13.4858 163.8 13.7358 164.629 14.2358C165.459 14.7301 166.112 15.4119 166.589 16.2812C167.067 17.1506 167.305 18.1449 167.305 19.2642C167.305 20.4176 167.038 21.446 166.504 22.3494C165.976 23.2472 165.24 23.9545 164.297 24.4716C163.359 24.983 162.274 25.2386 161.041 25.2386Z" fill="#354153"/>
<defs>
<clipPath id="clip0_401_402">
<rect width="32" height="32" fill="white"/>
</clipPath>
</defs>
</svg>
